<?xml version="1.0" encoding="UTF-8"?><svg width="406.8" height="57.77" id="uuid-719365cf-d068-4c91-bc72-af97ad06d7e4" xmlns="http://www.w3.org/2000/svg" viewBox="0 0 406.8 57.77"><polygon points="22.25 19.18 22.3 19.18 22.3 19.16 22.25 19.16 22.25 19.18 22.25 19.18" fill="#be5927"/><path d="M28.04,14.35c-1.21-.19-2.35-.36-3.39-.36-.55,0-1.04.05-1.47.16l-.24-6.76v-1.12c.48-.2,1.06-.29,1.79-.29.94,0,2.02.16,3.17.33,1.01.15,2.04.29,3.1.36l.29,8.08c-1.09-.06-2.18-.23-3.24-.39h0ZM16.51,14.35c-1.06.17-2.16.33-3.25.39l.29-8.08c1.06-.07,2.09-.21,3.1-.36,1.14-.17,2.22-.33,3.17-.33.74,0,1.31.09,1.79.29v1.12l-.24,6.76c-.43-.1-.92-.16-1.47-.16-1.03,0-2.18.18-3.39.36h0ZM33.68,9.58v-1.54h-.95v-2.62h-.64c-1.36,0-2.7-.2-4.01-.39-1.19-.17-2.32-.34-3.35-.34-.98,0-1.78.15-2.45.47-.67-.32-1.48-.47-2.45-.47-1.04,0-2.16.17-3.35.34-1.3.19-2.65.39-4.01.39h-.64v2.62h-.95v1.54h.95v2.08h-.94v1.54h.94v2.85h.64c1.45,0,2.87-.22,4.24-.43,1.16-.18,2.26-.35,3.19-.35.76,0,1.32.11,1.76.34h0s1.23,0,1.23,0h0c.44-.23,1.01-.34,1.76-.34.94,0,2.04.17,3.2.35,1.37.21,2.8.43,4.24.43h.64v-2.85h.94v-1.54h-.94v-2.08h.95Z" fill="#be5927"/><path d="M16.68,7.46c-.06,0-.13.02-.19.03-.6.09-1.21.18-1.83.25l-.04,1.04c.68-.07,1.35-.17,2.02-.27.01,0,.03,0,.04,0v-1.03h0Z" fill="#be5927"/><path d="M17.45,7.35v1.03c1.09-.15,2.09-.26,2.96-.19l.04-1.02c-.92-.07-1.94.03-2.99.18h0Z" fill="#be5927"/><path d="M16.68,12.15c-.06,0-.13.02-.19.03-.66.1-1.32.19-2,.27l-.04,1.03c.74-.08,1.47-.18,2.19-.29.01,0,.03,0,.04,0v-1.04h0Z" fill="#be5927"/><path d="M17.45,12.04v1.03c1.02-.14,1.96-.25,2.79-.2l.04-1.02c-.88-.05-1.83.05-2.82.19h0Z" fill="#be5927"/><path d="M16.52,9.83v1.04s.08-.01.12-.02c1.37-.2,2.62-.38,3.68-.31l.04-1.02c-1.17-.07-2.48.11-3.84.31h0Z" fill="#be5927"/><path d="M15.75,9.94c-.39.06-.78.11-1.18.15l-.04,1.03c.41-.04.82-.1,1.21-.15v-1.04h0Z" fill="#be5927"/><path d="M26.63,7.29c-.89-.11-1.74-.17-2.53-.12l.04,1.02c.74-.06,1.58.01,2.49.13v-1.03h0Z" fill="#be5927"/><path d="M29.89,7.73c-.62-.07-1.23-.16-1.83-.25-.22-.03-.44-.06-.66-.09v1.03c.17.02.34.05.51.07.66.1,1.33.2,2.02.27l-.04-1.04h0Z" fill="#be5927"/><path d="M26.42,9.61c-.78-.09-1.53-.14-2.23-.1l.04,1.02c.66-.04,1.4.01,2.19.11v-1.03h0Z" fill="#be5927"/><path d="M29.97,10.09c-.65-.07-1.29-.17-1.92-.26-.29-.04-.58-.08-.87-.12v1.03c.24.03.48.07.72.1.69.1,1.39.2,2.1.28l-.04-1.03h0Z" fill="#be5927"/><path d="M27.96,13.19c.7.1,1.41.21,2.14.28l-.04-1.03c-.68-.07-1.34-.17-2-.27-.03,0-.07,0-.1-.01v1.04h0Z" fill="#be5927"/><path d="M27.19,12.05c-1.02-.14-2.01-.24-2.92-.2l.04,1.02c.85-.05,1.82.06,2.88.21v-1.04h0Z" fill="#be5927"/><path d="M20.94,28.58l1.33-3.33,1.33,3.33,3.58.24-2.76,2.3.88,3.48-3.04-1.91-3.04,1.91.88-3.48-2.76-2.3,3.58-.24h0ZM12.82,27.4h0s5.79,4.21,5.79,4.21l-2.23,6.86s0,.03.02.03c.01,0,.02,0,.04,0l5.84-4.24,5.84,4.24s.03,0,.04,0c.02-.02.02-.04.01-.06l-2.22-6.83,5.79-4.21h0s.04-.04.04-.07c0-.02-.04-.04-.07-.03h0s-7.16,0-7.16,0l-2.21-6.81h0s-.02-.05-.05-.05-.05.02-.05.05h0l-2.21,6.81h-7.16s-.06,0-.06.03c0,.02,0,.05.04.06h0Z" fill="#be5927"/><path d="M36.65,36.01c-.52.58-1.2.98-1.95,1.16.11-.77.44-1.48.96-2.06.53-.58,1.2-.98,1.95-1.16-.11.77-.44,1.48-.96,2.06h0ZM33.84,31.5c-.1-.77.04-1.55.38-2.24.51.58.84,1.29.94,2.07.1.77-.03,1.55-.38,2.24-.51-.58-.84-1.29-.94-2.06h0ZM35.4,25.64c-.15-.77-.06-1.55.25-2.26.55.54.92,1.24,1.06,2.01.15.76.06,1.55-.25,2.26-.55-.55-.92-1.24-1.07-2h0ZM39.1,27.35c.05.77-.12,1.54-.52,2.21-.39.67-.97,1.2-1.67,1.54-.05-.77.12-1.54.51-2.21.39-.67.98-1.2,1.67-1.54h0ZM33.42,41.91c-.63.46-1.37.71-2.14.73.26-.73.73-1.36,1.36-1.82.63-.46,1.37-.71,2.15-.73-.26.73-.74,1.36-1.37,1.82h0ZM31.61,36.92c.06-.78.36-1.51.84-2.11.38.67.56,1.44.5,2.21-.06.78-.35,1.51-.83,2.11-.38-.67-.56-1.44-.5-2.21h0ZM29.59,42.14c-.22.75-.66,1.4-1.25,1.89-.24-.73-.25-1.52-.03-2.27.22-.75.66-1.41,1.26-1.89.24.73.25,1.52.03,2.27h0ZM30.76,45.52c-.41.66-1,1.18-1.71,1.5-.49.22-1.02.33-1.56.33h0c-.23,0-.46-.02-.69-.06.41-.66,1-1.18,1.71-1.49.71-.32,1.5-.41,2.25-.27h0ZM24.08,45.82c.37-.69.94-1.24,1.62-1.59.08.76-.07,1.54-.44,2.23-.37.69-.93,1.24-1.62,1.59-.08-.77.07-1.54.44-2.23h0ZM15.42,47.02c-.71-.32-1.3-.84-1.71-1.5.76-.14,1.54-.05,2.25.27.71.32,1.3.84,1.71,1.49-.76.14-1.54.05-2.25-.27h0ZM14.88,42.14c-.22-.75-.21-1.54.03-2.27.59.49,1.03,1.14,1.25,1.89.22.75.21,1.54-.03,2.27-.6-.49-1.03-1.15-1.25-1.89h0ZM18.78,44.23c.68.35,1.25.91,1.62,1.59.37.69.52,1.46.44,2.23-.69-.36-1.25-.91-1.62-1.59-.37-.69-.52-1.46-.44-2.23h0ZM11.05,41.91c-.63-.46-1.1-1.09-1.37-1.82.77.02,1.51.27,2.15.73.63.45,1.1,1.09,1.36,1.82-.78-.02-1.52-.27-2.15-.73h0ZM12.03,34.81c.48.6.77,1.33.84,2.11.06.78-.12,1.54-.5,2.21-.48-.6-.77-1.34-.83-2.11-.06-.78.11-1.55.5-2.21h0ZM7.83,36.01c-.52-.58-.85-1.29-.96-2.06.75.18,1.42.58,1.95,1.16.52.57.85,1.29.96,2.06-.75-.18-1.43-.58-1.95-1.16h0ZM7.56,31.1c-.7-.33-1.28-.86-1.67-1.54-.39-.67-.57-1.44-.52-2.21.69.33,1.28.86,1.67,1.54.39.67.57,1.44.51,2.21h0ZM7.77,25.39c.15-.77.52-1.46,1.06-2,.31.71.39,1.49.25,2.26-.15.77-.52,1.46-1.07,2.01-.31-.71-.39-1.49-.25-2.26h0ZM9.31,31.33c.1-.77.43-1.49.94-2.06.35.69.48,1.47.38,2.24-.1.77-.43,1.49-.94,2.06-.35-.69-.48-1.47-.38-2.24h0ZM36.65,32.3c1.19-.36,2.2-1.15,2.82-2.22.62-1.07.82-2.33.54-3.55l-.12-.53-.53.16c-.6.18-1.16.47-1.64.85.11-.59.11-1.21,0-1.82-.23-1.22-.92-2.3-1.92-3.03l-.44-.32-.29.47c-.66,1.05-.9,2.31-.66,3.53.23,1.21.91,2.28,1.91,3.02-.18.42-.31.86-.37,1.3-.3-.81-.8-1.54-1.48-2.1l-.42-.35-.32.45c-.72,1.01-1.03,2.25-.87,3.48.16,1.23.78,2.35,1.74,3.14l.02.02c-.28.38-.5.8-.66,1.25-.12-.85-.47-1.67-1.02-2.36l-.34-.43-.4.37c-.92.84-1.47,1.98-1.57,3.23-.1,1.23.28,2.45,1.05,3.43l.02.02c-.36.31-.66.68-.91,1.08.06-.86-.11-1.73-.5-2.52l-.25-.49-.47.28c-1.07.63-1.85,1.64-2.21,2.83-.35,1.19-.23,2.46.32,3.57v.03c-.4.23-.77.53-1.1.87.23-.83.25-1.72.02-2.57l-.14-.53-.52.17c-1.18.4-2.15,1.22-2.74,2.32-.57,1.06-.72,2.28-.45,3.44-.16.11-.32.22-.49.34-.17-.12-.34-.23-.49-.34.28-1.17.12-2.39-.45-3.45-.59-1.09-1.57-1.91-2.74-2.31l-.52-.17-.14.53c-.22.85-.21,1.74.02,2.57-.33-.34-.7-.64-1.11-.87v-.03c.57-1.12.69-2.38.34-3.57-.35-1.19-1.14-2.2-2.21-2.83l-.47-.28-.25.49c-.4.79-.56,1.66-.5,2.52-.25-.4-.55-.77-.91-1.08l.02-.02c.78-.98,1.15-2.19,1.05-3.43-.1-1.24-.66-2.38-1.57-3.22l-.41-.37-.34.43c-.55.69-.89,1.5-1.02,2.36-.16-.44-.38-.86-.66-1.25l.02-.02c.96-.79,1.58-1.91,1.74-3.14.16-1.23-.15-2.47-.87-3.48l-.32-.45-.42.35c-.68.56-1.19,1.29-1.48,2.1-.06-.45-.19-.89-.37-1.31,1-.74,1.68-1.8,1.91-3.02.23-1.22,0-2.48-.66-3.53l-.29-.47-.44.32c-1.01.73-1.69,1.81-1.92,3.03-.12.61-.12,1.22,0,1.82-.48-.38-1.04-.67-1.64-.85l-.53-.16-.12.53c-.27,1.22-.08,2.48.54,3.55.62,1.07,1.62,1.86,2.82,2.22l.46.14c.05.39.15.77.29,1.14-.66-.42-1.42-.68-2.21-.75l-.55-.04v.55c-.02,1.25.42,2.44,1.25,3.35.83.92,1.97,1.48,3.21,1.59l.48.04c.13.37.3.73.52,1.06-.54-.2-1.11-.31-1.7-.31-.21,0-.42.01-.62.04l-.54.07.11.54c.24,1.23.93,2.3,1.93,3.03.83.61,1.82.93,2.86.93.2,0,.41-.01.61-.04l.48-.06c.2.34.45.65.72.93-.78-.12-1.58-.05-2.33.21l-.52.18.22.5c.49,1.15,1.38,2.06,2.51,2.56.63.28,1.29.42,1.98.42.55,0,1.09-.09,1.61-.27l.38-.13c.64.54,1.36,1.08,2.35,1.76-.45.3-.95.62-1.51.98l.96.6c.54-.35,1.03-.67,1.47-.96.44.29.92.61,1.47.96l.96-.6c-.56-.36-1.06-.68-1.51-.98.99-.68,1.71-1.22,2.35-1.76l.38.13c.52.18,1.06.27,1.6.27h0c.69,0,1.35-.14,1.98-.42,1.13-.51,2.02-1.42,2.51-2.56l.22-.5-.52-.18c-.75-.26-1.55-.33-2.33-.21.28-.28.52-.59.72-.93l.48.06c.2.02.41.04.61.04h0c1.03,0,2.02-.32,2.86-.93,1-.73,1.69-1.8,1.93-3.03l.11-.54-.54-.07c-.21-.02-.42-.04-.62-.04-.59,0-1.16.11-1.7.31.21-.33.39-.68.52-1.06l.48-.04c1.24-.1,2.38-.67,3.21-1.59.83-.92,1.28-2.11,1.26-3.35v-.55s-.55.04-.55.04c-.8.06-1.55.32-2.21.75.14-.37.24-.75.29-1.14l.46-.14h0Z" fill="#be5927"/><path d="M36.78,43.12c-1.04,1.53-2.24,2.94-3.68,4.32-4.44,4.08-9.43,6.33-10.83,6.92-1.4-.59-6.39-2.84-10.83-6.92-1.44-1.38-2.63-2.79-3.68-4.32-5.04-7.39-5.71-15.95-5.71-22.61h0s20.22-1.12,20.22-1.12l20.22,1.12c0,6.66-.67,15.22-5.71,22.61h0ZM3.13,3.33c3.76-.42,12.21-1.26,19.15-1.26s15.39.84,19.15,1.26l1.05,14.81H2.08L3.13,3.33h0ZM44.54,1.61l-.9-.11c-.12-.01-12.06-1.5-21.36-1.5h-.01C12.97,0,1.03,1.49.91,1.5L0,1.61v16.52h0v2.31c0,6.96.69,15.96,6.07,23.83,1.11,1.62,2.37,3.12,3.88,4.57h0s.02.02.03.03c2.92,2.81,6.77,5.46,12.29,8.53h0s0,0,0,0c0,0,0,0,0,0h0c5.52-3.08,9.37-5.73,12.29-8.54.01,0,.02-.02.03-.02h0c1.51-1.46,2.77-2.95,3.88-4.58,5.38-7.88,6.07-16.87,6.07-23.83v-.33h0V1.61h0Z" fill="#be5927"/><path d="M72.24,17.39l-1.88.06-.1-.7.98-.2v-5.72c0-1.04-.48-1.5-1.28-1.5-.6,0-1.38.44-2.12.9l-.6.38v5.94l1.1.2-.1.7-1.9-.06-2.1.06-.1-.7,1.2-.2V4.31l-.72.12-4.06-.06v12.12l2.3.26-.1.7-3.24-.06-3.36.06-.1-.7,2.4-.26V4.37l-3,.06-.92,2.5h-.78v-3.54l5.74.04,4.92-.04,2.14-.24h.68v6.48l2.92-1.9c2.56,0,2.98.96,2.98,3.5v5.32l1.5.2-.1.7-2.3-.06Z" fill="#be5927"/><path d="M77.11,12.33c0,2.28,1.22,3.9,3.32,3.9.8,0,1.76-.38,2.5-.84l.32.76c-.96.66-2.22,1.22-3.5,1.58-2.42,0-4.6-1.72-4.6-4.86,0-2.96,1.78-4.54,4.52-5.14,2.64,0,3.54,1.66,3.54,3.76v.84h-6.1ZM81.13,11.33c0-1.54-.3-2.6-1.84-2.6-1.22,0-2,1.14-2.16,2.8l4-.2Z" fill="#be5927"/><path d="M97.59,4.11l.1-.7,2.56.06,2.34-.06.1.7-1.7.26v8.16c0,2.6-1.06,4.34-5.04,5.26-3.94,0-5.34-2.12-5.34-5.3V4.37l-1.8-.26.1-.7,2.76.06,2.74-.06.1.7-1.7.26v8.42c0,2.48,1.06,3.9,3.34,3.9,2.08,0,3.24-1.4,3.24-3.96V4.37l-1.8-.26Z" fill="#be5927"/><path d="M105.27,17.39l-2.3.06-.1-.7,1.4-.2v-7.3l-1.4.12-.1-.7,2.4-.62.86-.06.1,1.68,2.96-1.94c2.56,0,2.98.86,2.98,3.26v5.56l1.52.2-.1.7-2.3-.06-1.92.06-.1-.7,1-.2v-5.72c0-1.04-.46-1.5-1.32-1.5-.7,0-1.4.44-2.08.9l-.6.4v5.92l1.1.2-.1.7-1.9-.06Z" fill="#be5927"/><path d="M116.91,17.39l-2.3.06-.1-.7,1.4-.2v-7.3l-1.4.12-.1-.7,2.4-.62,1-.08v8.58l1.5.2-.1.7-2.3-.06ZM115.91,3.63l1.44-.1.56.1.1,1.12-.22.96-1.42.12-.54-.12-.12-1.12.2-.96Z" fill="#be5927"/><path d="M124.81,16.15l2.42-7.24-.92-.2.1-.7,1.76.06,1.66-.06.1.7-1.28.2-3.28,8.22-1.46.6-3.48-8.82-1.24-.2.1-.7,2.3.06,2.1-.06.1.7-1.32.2,2.18,5.86.16,1.38Z" fill="#be5927"/><path d="M131.77,12.33c0,2.28,1.22,3.9,3.32,3.9.8,0,1.76-.38,2.5-.84l.32.76c-.96.66-2.22,1.22-3.5,1.58-2.42,0-4.6-1.72-4.6-4.86,0-2.96,1.78-4.54,4.52-5.14,2.64,0,3.54,1.66,3.54,3.76v.84h-6.1ZM135.79,11.33c0-1.54-.3-2.6-1.84-2.6-1.22,0-2,1.14-2.16,2.8l4-.2Z" fill="#be5927"/><path d="M142.03,10.63l2.28-2.8h1.6v2h-1.48c-.48.1-1.36.76-1.9,1.42l-.4.48v4.76l2.1.2-.1.76-2.9-.06-2.24.06-.1-.7,1.4-.2v-7.3l-1.4.12-.1-.7,2.4-.62.8-.06.04,2.64Z" fill="#be5927"/><path d="M152.09,9.15c-.2-.12-.8-.44-1.52-.44-.78,0-1.52.42-1.52,1.18,0,.64.5,1.04,1.4,1.5l1.54.78c1.34.68,1.88,1.44,1.88,2.58,0,1.8-1.46,2.48-3.76,2.98-1.22,0-2.52-.6-3.04-.9l-.38-2.26h1.28l.68,1.66c.42.28,1,.5,1.64.5,1.06,0,1.6-.68,1.6-1.52,0-.78-.42-1.12-1.46-1.66l-1.58-.82c-.86-.44-1.68-1.2-1.68-2.32,0-1.4,1.3-2.18,3.62-2.68,1.08,0,2.24.48,2.82.9v2h-1.06l-.46-1.48Z" fill="#be5927"/><path d="M157.49,17.39l-2.3.06-.1-.7,1.4-.2v-7.3l-1.4.12-.1-.7,2.4-.62,1-.08v8.58l1.5.2-.1.7-2.3-.06ZM156.49,3.63l1.44-.1.56.1.1,1.12-.22.96-1.42.12-.54-.12-.12-1.12.2-.96Z" fill="#be5927"/><path d="M167.39,22.13v-2h1.72l1.98-3.02-.8.24-3.36-8.42h-3.02v6.1c0,.58.22,1.2,1.06,1.2.58,0,1.2-.28,1.76-.56l.34.68-2.52,1.38c-2.24,0-2.54-.8-2.54-2.6v-5.96h-1.94v-.34l.7-.7h1.3v-1.3l1.3-1.3h.52v2.5h6.3l.1.68-1.32.2,2.22,5.86.16,1.38,2.48-7.24-.92-.2.1-.7,1.76.06,1.66-.06.1.7-1.28.2-3.24,8.18-2.24,5.04h-2.38Z" fill="#be5927"/><path d="M191.27,12.53c0,2.98-1.82,4.7-4.92,5.2-2.66,0-4.46-2.06-4.46-4.78,0-3,1.82-4.7,4.92-5.22,2.66,0,4.46,2.08,4.46,4.8ZM186.85,16.75c1.6,0,2.42-1.64,2.42-3.8,0-2.54-1.22-4.24-2.96-4.24-1.62,0-2.42,1.64-2.42,3.82s1.18,4.22,2.96,4.22Z" fill="#be5927"/><path d="M195.65,8.23h2.5v.94h-2.5v7.38l2.3.14-.1.76-3.1-.06-2.3.06-.1-.7,1.4-.2v-7.38h-1.76v-.34l.6-.7h1.16v-.2c0-1.2.38-1.98,1.1-2.8l1.68-1.9h2.52v1.6h-2.6l-.38.54c-.28.38-.42.96-.42,2.26v.6Z" fill="#be5927"/><path d="M212.41,17.45l-3.24-.06-3.36.06-.1-.7,2.4-.26V4.37l-3,.04-.92,2.54h-.78v-3.54l5.74.06,5.76-.06v3.54h-.78l-.92-2.54-3-.04v12.12l2.3.26-.1.7Z" fill="#be5927"/><path d="M216.25,12.33c0,2.28,1.22,3.9,3.32,3.9.8,0,1.76-.38,2.5-.84l.32.76c-.96.66-2.22,1.22-3.5,1.58-2.42,0-4.6-1.72-4.6-4.86,0-2.96,1.78-4.54,4.52-5.14,2.64,0,3.54,1.66,3.54,3.76v.84h-6.1ZM220.27,11.33c0-1.54-.3-2.6-1.84-2.6-1.22,0-2,1.14-2.16,2.8l4-.2Z" fill="#be5927"/><path d="M226.39,16.75l-.1.7-1.56-.06-2.06.06-.1-.7,1.4-.2,2.96-3.64-2.9-3.98-1.24-.2.1-.72,2.3.06,1.9-.06.1.72-.78.2,1.48,2.22.16.52,1.9-2.74-.98-.2.1-.72,1.56.06,2.06-.06.1.72-1.44.2-2.64,3.2,3.14,4.42,1.24.2-.1.7-2.3-.06-1.9.06-.1-.7.82-.2-1.78-2.58-.16-.46-2.12,3.04.94.2Z" fill="#be5927"/><path d="M237.61,7.73c2.52,0,3.16.64,3.16,3.18v3.92c0,.86.14,1.18.34,1.5h1l.08.7-2.58.5-.62-1.54-2.38,1.74c-1.72,0-2.94-.96-2.94-2.56,0-.72.26-1.24.7-1.84l4.5-1.5v-1c0-1.2-.1-1.92-1.18-1.92-.54,0-1.2.18-1.64.36l-.34,1.58h-1.72v-1.52l3.62-1.6ZM238.87,12.63l-2.9,1.2c-.3.3-.4.7-.4,1.12,0,1.02.58,1.38,1.16,1.38s1.04-.34,1.3-.52l.84-.58v-2.6Z" fill="#be5927"/><path d="M248.17,9.15c-.2-.12-.8-.44-1.52-.44-.78,0-1.52.42-1.52,1.18,0,.64.5,1.04,1.4,1.5l1.54.78c1.34.68,1.88,1.44,1.88,2.58,0,1.8-1.46,2.48-3.76,2.98-1.22,0-2.52-.6-3.04-.9l-.38-2.26h1.28l.68,1.66c.42.28,1,.5,1.64.5,1.06,0,1.6-.68,1.6-1.52,0-.78-.42-1.12-1.46-1.66l-1.58-.82c-.86-.44-1.68-1.2-1.68-2.32,0-1.4,1.3-2.18,3.62-2.68,1.08,0,2.24.48,2.82.9v2h-1.06l-.46-1.48Z" fill="#be5927"/><path d="M259.79,7.73c2.52,0,3.16.64,3.16,3.18v3.92c0,.86.14,1.18.34,1.5h1l.08.7-2.58.5-.62-1.54-2.38,1.74c-1.72,0-2.94-.96-2.94-2.56,0-.72.26-1.24.7-1.84l4.5-1.5v-1c0-1.2-.1-1.92-1.18-1.92-.54,0-1.2.18-1.64.36l-.34,1.58h-1.72v-1.52l3.62-1.6ZM261.05,12.63l-2.9,1.2c-.3.3-.4.7-.4,1.12,0,1.02.58,1.38,1.16,1.38s1.04-.34,1.3-.52l.84-.58v-2.6Z" fill="#be5927"/><path d="M264.35,9.17v-.34l.7-.7h1.3v-1.3l1.3-1.3h.52v2.74h3.02v.9h-3v5.86c0,.58.22,1.2,1.06,1.2.58,0,1.02-.2,1.58-.48l.34.68-2.34,1.3c-2.24,0-2.54-.8-2.54-2.6v-5.96h-1.94Z" fill="#be5927"/><path d="M280.39,12.75l-1.3,3.74,1.74.26-.1.7-2.4-.06-2.14.06-.1-.7,1.56-.22,4.96-12.96,1.2-.34,5.22,13.3,1.56.22-.1.7-2.76-.06-2.64.06-.1-.7,1.7-.26-1.36-3.74h-4.94ZM283.05,6.53l-.14-1.08-2.2,6.36h4.26l-1.92-5.28Z" fill="#be5927"/><path d="M299.37,14.83c0,.86.1,1.18.24,1.5h1l.08.7-2.58.5-.56-1.62-2.9,1.82c-2.64,0-3.08-.94-3.08-3.26v-5.22l-1.4.1-.1-.78,2.4-.52,1-.08v6.66c0,1.04.44,1.5,1.42,1.5.62,0,1.42-.5,2.18-1l.4-.26v-5.62l-1.2.1-.1-.78,2.2-.52,1-.08v6.86Z" fill="#be5927"/><path d="M307.07,9.15c-.2-.12-.8-.44-1.52-.44-.78,0-1.52.42-1.52,1.18,0,.64.5,1.04,1.4,1.5l1.54.78c1.34.68,1.88,1.44,1.88,2.58,0,1.8-1.46,2.48-3.76,2.98-1.22,0-2.52-.6-3.04-.9l-.38-2.26h1.28l.68,1.66c.42.28,1,.5,1.64.5,1.06,0,1.6-.68,1.6-1.52,0-.78-.42-1.12-1.46-1.66l-1.58-.82c-.86-.44-1.68-1.2-1.68-2.32,0-1.4,1.3-2.18,3.62-2.68,1.08,0,2.24.48,2.82.9v2h-1.06l-.46-1.48Z" fill="#be5927"/><path d="M309.37,9.17v-.34l.7-.7h1.3v-1.3l1.3-1.3h.52v2.74h3.02v.9h-3v5.86c0,.58.22,1.2,1.06,1.2.58,0,1.02-.2,1.58-.48l.34.68-2.34,1.3c-2.24,0-2.54-.8-2.54-2.6v-5.96h-1.94Z" fill="#be5927"/><path d="M319.33,17.39l-2.3.06-.1-.7,1.4-.2v-7.3l-1.4.12-.1-.7,2.4-.62,1-.08v8.58l1.5.2-.1.7-2.3-.06ZM318.33,3.63l1.44-.1.56.1.1,1.12-.22.96-1.42.12-.54-.12-.12-1.12.2-.96Z" fill="#be5927"/><path d="M325.11,17.39l-2.3.06-.1-.7,1.4-.2v-7.3l-1.4.12-.1-.7,2.4-.62.86-.06.1,1.68,2.96-1.94c2.56,0,2.98.86,2.98,3.26v5.56l1.52.2-.1.7-2.3-.06-1.92.06-.1-.7,1-.2v-5.72c0-1.04-.46-1.5-1.32-1.5-.7,0-1.4.44-2.08.9l-.6.4v5.92l1.1.2-.1.7-1.9-.06Z" fill="#be5927"/><path d="M59.87,23.78l7.16-.11c7.34-.04,11.88,4.21,11.88,11.91s-4.07,12.42-12.24,13.35l-6.8-.11-4.86.11-.18-1.26,3.24-.47v-21.81l-3.24-.47.18-1.26,4.86.11ZM61.85,25.4v21.56l4.5.36c5,0,8.39-4.5,8.39-11.27,0-6.05-3.13-10.83-9.39-10.83l-3.49.18Z" fill="#333f48"/><path d="M85.14,39.72c0,4.1,2.2,7.02,5.98,7.02,1.44,0,3.17-.68,4.5-1.51l.58,1.37c-1.73,1.19-4,2.2-6.3,2.84-4.35,0-8.28-3.1-8.28-8.75,0-5.33,3.2-8.17,8.13-9.25,4.75,0,6.37,2.99,6.37,6.77v1.51h-10.98ZM92.38,37.92c0-2.77-.54-4.68-3.31-4.68-2.2,0-3.6,2.05-3.89,5.04l7.2-.36Z" fill="#333f48"/><path d="M103.58,48.69v6.91l3.78.36-.18,1.26-5.22-.11-4.14.11-.18-1.26,2.52-.36v-21.45l-2.52.22-.18-1.22,4.32-1.12,1.55-.11.18,2.99,4.61-3.46c4.64,0,7.34,3.17,7.34,8.39,0,6.12-3.67,8.89-9.03,9.61-1.01,0-2.02-.29-2.84-.76ZM108.11,34.14c-.97,0-2.12.65-3.46,1.66l-1.08.83v9.03c.83,1.26,2.3,1.98,3.92,1.98,2.59,0,4.36-2.56,4.36-6.7s-1.58-6.8-3.74-6.8Z" fill="#333f48"/><path d="M124.89,31.45c4.54,0,5.69,1.15,5.69,5.72v7.06c0,1.55.25,2.12.61,2.7h1.8l.14,1.26-4.64.9-1.12-2.77-4.28,3.13c-3.1,0-5.29-1.73-5.29-4.61,0-1.3.47-2.23,1.26-3.31l8.1-2.7v-1.8c0-2.16-.18-3.46-2.12-3.46-.97,0-2.16.32-2.95.65l-.61,2.84h-3.1v-2.74l6.52-2.88ZM127.16,40.26l-5.22,2.16c-.54.54-.72,1.26-.72,2.02,0,1.84,1.04,2.48,2.09,2.48s1.87-.61,2.34-.94l1.51-1.04v-4.68Z" fill="#333f48"/><path d="M140.22,36.66l4.1-5.04h2.88v3.6h-2.66c-.86.18-2.45,1.37-3.42,2.56l-.72.86v8.57l3.78.36-.18,1.37-5.22-.11-4.03.11-.18-1.26,2.52-.36v-13.14l-2.52.22-.18-1.26,4.32-1.12,1.44-.11.07,4.75Z" fill="#333f48"/><path d="M147.93,34.04v-.61l1.26-1.26h2.34v-2.34l2.34-2.34h.94v4.93h5.44v1.62h-5.4v10.55c0,1.04.4,2.16,1.91,2.16,1.04,0,1.83-.36,2.84-.86l.61,1.22-4.21,2.34c-4.03,0-4.57-1.44-4.57-4.68v-10.73h-3.49Z" fill="#333f48"/><path d="M186.59,48.83l-3.42.11-.18-1.26,1.8-.36v-10.29c0-1.87-.79-2.7-2.09-2.7-1.08,0-2.41.72-3.67,1.62l-1.08.76v10.62l1.62.36-.18,1.26-3.06-.11-3.24.11-.18-1.26,1.62-.36v-10.29c0-1.87-.79-2.7-2.09-2.7-1.08,0-2.41.72-3.67,1.62l-1.08.76v10.62l1.8.36-.18,1.26-3.24-.11-4.14.11-.18-1.26,2.52-.36v-13.14l-2.52.22-.18-1.26,4.32-1.12,1.55-.11.18,2.99,4.97-3.46c3.49,0,4.79,1.04,5.18,3.53l5.08-3.53c4.61,0,5.36,1.73,5.36,6.3v9.57l2.7.36-.18,1.26-4.14-.11Z" fill="#333f48"/><path d="M195.59,39.72c0,4.1,2.2,7.02,5.97,7.02,1.44,0,3.17-.68,4.5-1.51l.58,1.37c-1.73,1.19-4,2.2-6.3,2.84-4.36,0-8.28-3.1-8.28-8.75,0-5.33,3.2-8.17,8.14-9.25,4.75,0,6.37,2.99,6.37,6.77v1.51h-10.98ZM202.83,37.92c0-2.77-.54-4.68-3.31-4.68-2.2,0-3.6,2.05-3.89,5.04l7.2-.36Z" fill="#333f48"/><path d="M212.94,48.83l-4.14.11-.18-1.26,2.52-.36v-13.14l-2.52.22-.18-1.26,4.32-1.12,1.55-.11.18,3.02,5.33-3.49c4.61,0,5.36,1.55,5.36,5.87v10.01l2.74.36-.18,1.26-4.14-.11-3.46.11-.18-1.26,1.8-.36v-10.29c0-1.87-.83-2.7-2.38-2.7-1.26,0-2.52.79-3.74,1.62l-1.08.72v10.65l1.98.36-.18,1.26-3.42-.11Z" fill="#333f48"/><path d="M227.81,34.04v-.61l1.26-1.26h2.34v-2.34l2.34-2.34h.94v4.93h5.44v1.62h-5.4v10.55c0,1.04.4,2.16,1.91,2.16,1.04,0,1.83-.36,2.84-.86l.61,1.22-4.21,2.34c-4.03,0-4.57-1.44-4.57-4.68v-10.73h-3.49Z" fill="#333f48"/><path d="M267.16,40.08c0,5.36-3.28,8.46-8.85,9.36-4.79,0-8.03-3.71-8.03-8.6,0-5.4,3.28-8.46,8.86-9.4,4.79,0,8.03,3.74,8.03,8.64ZM259.2,47.68c2.88,0,4.36-2.95,4.36-6.84,0-4.57-2.2-7.63-5.33-7.63-2.92,0-4.36,2.95-4.36,6.88s2.12,7.6,5.33,7.6Z" fill="#333f48"/><path d="M275.26,32.35h4.5v1.69h-4.5v13.28l4.14.25-.18,1.37-5.58-.11-4.14.11-.18-1.26,2.52-.36v-13.28h-3.17v-.61l1.08-1.26h2.09v-.36c0-2.16.68-3.56,1.98-5.04l3.02-3.42h4.54v2.88h-4.68l-.68.97c-.5.68-.76,1.73-.76,4.07v1.08Z" fill="#333f48"/><path d="M290.2,24.93l.18-1.26,4.97.11,4.75-.11.18,1.26-3.06.47v9.54h11.52v-9.54l-3.24-.47.18-1.26,4.97.11,4.75-.11.18,1.26-3.06.47v21.81l3.06.47-.18,1.26-4.75-.11-4.97.11-.18-1.26,3.24-.47v-10.47h-11.52v10.47l3.06.47-.18,1.26-4.75-.11-4.97.11-.18-1.26,3.24-.47v-21.81l-3.24-.47Z" fill="#333f48"/><path d="M322.24,48.83l-4.14.11-.18-1.26,2.52-.36v-13.14l-2.52.22-.18-1.26,4.32-1.12,1.8-.14v15.44l2.7.36-.18,1.26-4.14-.11ZM320.44,24.07l2.59-.18,1.01.18.18,2.02-.4,1.73-2.56.22-.97-.22-.22-2.02.36-1.73Z" fill="#333f48"/><path d="M338.08,34c-.36-.22-1.44-.79-2.74-.79-1.4,0-2.74.76-2.74,2.12,0,1.15.9,1.87,2.52,2.7l2.77,1.4c2.41,1.22,3.38,2.59,3.38,4.64,0,3.24-2.63,4.46-6.77,5.36-2.2,0-4.54-1.08-5.47-1.62l-.68-4.07h2.3l1.22,2.99c.76.5,1.8.9,2.95.9,1.91,0,2.88-1.22,2.88-2.74,0-1.4-.76-2.02-2.63-2.99l-2.84-1.48c-1.55-.79-3.02-2.16-3.02-4.18,0-2.52,2.34-3.92,6.52-4.82,1.94,0,4.03.86,5.08,1.62v3.6h-1.91l-.83-2.66Z" fill="#333f48"/><path d="M342.43,34.04v-.61l1.26-1.26h2.34v-2.34l2.34-2.34h.94v4.93h5.43v1.62h-5.4v10.55c0,1.04.4,2.16,1.91,2.16,1.04,0,1.84-.36,2.84-.86l.61,1.22-4.21,2.34c-4.03,0-4.57-1.44-4.57-4.68v-10.73h-3.49Z" fill="#333f48"/><path d="M372.13,40.08c0,5.36-3.28,8.46-8.86,9.36-4.79,0-8.03-3.71-8.03-8.6,0-5.4,3.28-8.46,8.85-9.4,4.79,0,8.03,3.74,8.03,8.64ZM364.18,47.68c2.88,0,4.36-2.95,4.36-6.84,0-4.57-2.2-7.63-5.33-7.63-2.92,0-4.36,2.95-4.36,6.88s2.12,7.6,5.33,7.6Z" fill="#333f48"/><path d="M379.76,36.66l4.1-5.04h2.88v3.6h-2.66c-.86.18-2.45,1.37-3.42,2.56l-.72.86v8.57l3.78.36-.18,1.37-5.22-.11-4.03.11-.18-1.26,2.52-.36v-13.14l-2.52.22-.18-1.26,4.32-1.12,1.44-.11.07,4.75Z" fill="#333f48"/><path d="M390.35,57.36v-3.6h3.1l3.56-5.44-1.44.43-5.87-15.19-2.23-.36.18-1.26,4.14.11,3.78-.11.18,1.26-2.38.36,3.82,10.55.29,2.48,4.28-13.03-1.66-.36.18-1.26,3.17.11,2.99-.11.18,1.26-2.3.36-5.65,14.72-4.03,9.07h-4.28Z" fill="#333f48"/></svg>